<?xml version="1.0" encoding="utf-8"?>
<!-- Svg Vector Icons : http://www.onlinewebfonts.com/icon -->
<!DOCTYPE svg PUBLIC "-//W3C//DTD SVG 1.1//EN" "http://www.w3.org/Graphics/SVG/1.1/DTD/svg11.dtd">
<svg version="1.1" xmlns="http://www.w3.org/2000/svg" xmlns:xlink="http://www.w3.org/1999/xlink" x="0px" y="0px" viewBox="0 0 1000 1000" enable-background="new 0 0 1000 1000" xml:space="preserve">
<metadata> Svg Vector Icons : http://www.onlinewebfonts.com/icon </metadata>
<g><g transform="translate(0.000000,512.000000) scale(0.100000,-0.100000)"><path d="M7730.8,4652.5l-369.4-369.4l-159.7,88.5c-450.2,242.4-987.1,423.3-1508.5,504.1c-275.1,44.3-802.4,57.7-1098.7,30.8C3270.7,4783.3,2072,4115.7,1288.9,3068.9C779,2387.8,486.5,1666.3,380.7,825.4c-38.5-298.2-36.6-871.6,1.9-1164.1c102-767.7,381-1477.7,831.2-2114.6l105.8-152l486.8,486.8l486.8,486.8l-86.6,134.7c-48.1,73.1-132.8,230.9-188.6,348.3c-671.5,1418.1-240.5,3128.6,1023.6,4065.7c898.6,667.7,2081.9,831.2,3119,434.8l180.9-69.3l-282.8-282.9l-282.9-282.9l1160.2-11.5c638.8-5.8,1164.1-9.6,1166-5.8c3.9,3.9,3.9,527.2,1.9,1162.2l-5.8,1158.3L7730.8,4652.5z"/><path d="M8383.1,2312.8l-519.5-438.7l77-153.9c658-1318,394.4-2865-661.9-3888.6c-781.2-756.2-1920.3-1079.4-2970.8-844.7c-367.5,82.7-361.7,32.7-46.2,423.3c150.1,184.7,269.4,340.6,265.5,344.4c-7.7,7.7-2291.6-234.7-2299.3-244.4c-5.8-5.8,238.6-2262.8,248.2-2289.7c1.9-9.6,134.7,140.4,292.5,334.8c155.9,194.4,296.3,365.6,307.9,381c21.2,21.2,55.8,13.4,215.5-52c598.4-244.4,1179.5-346.3,1860.6-325.2C6147.3-4410.1,7067-4077.3,7877-3450c242.4,188.6,642.7,598.4,835.1,856.2c625.4,835.1,937,1774,935.1,2822.7c0,683.1-128.9,1293-402.2,1897.2c-82.7,186.6-288.6,565.7-327.1,609.9C8910.3,2743.8,8669.8,2553.3,8383.1,2312.8z"/><path d="M4750.4,2380.1c-5.8-13.5-11.6-150.1-13.5-304l-5.8-277.1l-111.6-26.9c-59.7-15.4-190.5-67.3-288.6-117.4l-177-90.4l-211.7,207.8l-211.7,207.8l-211.7-211.7l-211.7-211.7l209.7-209.7l207.8-209.7l-84.7-169.3c-46.2-94.3-102-229-121.2-300.2l-34.6-130.8h-294.4h-296.3V238.5V-59.7h296.3h294.4l34.6-128.9c19.2-73.1,75-207.8,121.2-302.1l84.7-169.3l-204-205.9l-204-204l211.7-211.7l211.7-211.7l204,203.9l202,202l180.9-90.4c100.1-48.1,230.9-102,292.5-117.4l111.6-26.9l9.6-296.3l9.6-298.2h298.2h298.2l9.6,298.2l9.6,296.3l111.6,26.9c61.6,15.4,192.4,69.3,292.5,117.4l180.9,92.4l207.8-209.7l207.8-211.7l205.9,219.4l207.8,217.4L6574.4-864l-204,204l52,94.3c71.2,123.1,134.7,284.8,165.5,406L6611-59.7h296.3h296.3v298.2v298.2h-296.3H6611l-23.1,100.1c-30.8,121.2-94.3,282.8-165.5,406l-52,94.3l209.7,209.7l209.7,209.7l-211.7,211.7l-211.7,211.7L6155,1770.2l-211.7-209.7l-144.3,78.9c-78.9,44.3-209.7,98.1-288.6,121.2l-144.3,42.3l-9.6,294.4l-9.6,296.3l-294.4,5.8C4829.2,2403.2,4756.1,2399.3,4750.4,2380.1z M5250.6,862c109.7-32.7,150.1-59.6,250.1-157.8c157.8-155.9,209.7-284.8,198.2-494.5c-11.5-177-59.6-294.4-177-419.5c-265.5-282.9-690.8-279-954.4,9.6c-230.9,252.1-232.8,631.1-3.9,875.5c107.7,115.4,180.9,159.7,313.6,196.3C5021.7,910.1,5100.5,908.1,5250.6,862z"/></g></g>
</svg>